{"title":"House Party (1990).DVDRip.XviD","uid":8756749,"size":733943808,"categoryP":"video","categoryS":"movies","magnet":"?xt=urn:btih:8ab9f4b9b02af6dca6467f3007381ade20b8b6d1&amp;dn=House+Party+%281990%29.DVDRip.XviD&amp;tr=udp%3A%2F%2Ftracker.openbittorrent.com%3A80&amp;tr=udp%3A%2F%2Fopen.demonii.com%3A1337&amp;tr=udp%3A%2F%2Ftracker.coppersurfer.tk%3A6969&amp;tr=udp%3A%2F%2Fexodus.desync.com%3A6969","seeders":10,"leechers":0,"uploader":null,"files":1,"time":1375161608,"description":"House Party (1990).DVDRip.XviD\n\nFormat  : AVI\nFormat/Info : Audio Video Interleave\nFile size  : 700 MiB\nDuration : 1h 44mn\nOverall bit rate: 940 Kbps\nWriting application : VirtualDubMod 1.5.4.1 (build 2178/release)\nWriting library: VirtualDubMod build 2178/release\n\nVideo\nID : 0\nFormat  : MPEG-4 Visual\nFormat profile : Advanced Simple@L5\nFormat settings, BVOP  : 1\nFormat settings, QPel : No\nFormat settings, GMC: No warppoints\nFormat settings, Matrix : Custom\nCodec ID : XVID\nCodec ID/Hint  : XviD\nDuration : 1h 44mn\nBit rate : 773 Kbps\nWidth  : 560 pixels\nHeight  : 304 pixels\nDisplay aspect ratio  : 1.85:1\nFrame rate  : 23.976 fps\nColor space : YUV\nChroma subsampling: 4:2:0\nBit depth : 8 bits\nScan type  : Progressive\nCompression mode : Lossy\nBits/(Pixel*Frame) : 0.189\nStream size : 576 MiB (82%)\nWriting library  : XviD 1.0.2 (UTC 2004-08-29)\n\nAudio\nID   : 1\nFormat   : MPEG Audio\nFormat version  : Version 1\nFormat profile : Layer 3\nMode   : Joint stereo\nMode extension : MS Stereo\nCodec ID  : 55\nCodec ID/Hint : MP3\nDuration : 1h 44mn\nBit rate mode  : Constant\nBit rate  : 160 Kbps\nChannel(s)  : 2 channels\nSampling rate   : 48.0 KHz\nCompression mode : Lossy\nStream size : 119 MiB (17%)\nAlignment  : Aligned on interleaves\nInterleave, duration : 83 ms (2.00 video frames)\nInterleave, preload duration : 504 ms\n","torrent":{"xt":"urn:btih:8ab9f4b9b02af6dca6467f3007381ade20b8b6d1","amp;dn":"House+Party+%281990%29.DVDRip.XviD","amp;tr":["udp%3A%2F%2Ftracker.openbittorrent.com%3A80","udp%3A%2F%2Fopen.demonii.com%3A1337","udp%3A%2F%2Ftracker.coppersurfer.tk%3A6969","udp%3A%2F%2Fexodus.desync.com%3A6969"],"infoHash":"8ab9f4b9b02af6dca6467f3007381ade20b8b6d1","infoHashBuffer":{"type":"Buffer","data":[138,185,244,185,176,42,246,220,166,70,127,48,7,56,26,222,32,184,182,209]},"announce":[],"urlList":[]}}